<svg width="30" height="27" viewBox="0 0 30 27" fill="none" xmlns="http://www.w3.org/2000/svg">
<path fill-rule="evenodd" clip-rule="evenodd" d="M21.8272 3.44334L27.033 12.4601C27.3766 13.0552 27.3766 13.7883 27.033 14.3833L21.8938 23.2848L17.2747 15.5863C16.4639 14.235 16.4575 12.5484 17.258 11.191L21.8272 3.44334ZM19.6992 2.37546L15.146 10.0961C14.373 11.4068 12.9648 12.2111 11.4433 12.2111H2.77688L7.90034 3.33705C8.24388 2.74202 8.87877 2.37546 9.56586 2.37546L19.6992 2.37546ZM2.75047 14.5866L7.90033 23.5064C8.24388 24.1014 8.87878 24.468 9.56586 24.468L19.8335 24.468L15.1568 16.6736C14.38 15.3788 12.9807 14.5866 11.4708 14.5866H2.75047ZM20.1003 0C21.6361 0 23.0552 0.819318 23.823 2.14932L29.0902 11.2724C29.8581 12.6024 29.8581 14.2411 29.0903 15.5711L23.823 24.6941C23.0552 26.0242 21.6361 26.8435 20.1003 26.8435L9.56587 26.8435C8.03011 26.8435 6.61101 26.0242 5.84313 24.6941L0.575909 15.5711C-0.19197 14.2411 -0.191969 12.6024 0.57591 11.2724L5.84313 2.14932C6.61101 0.819317 8.03011 0 9.56586 0H20.1003Z" fill="url(#paint0_linear_5162_1254)"/>
<defs>
<linearGradient id="paint0_linear_5162_1254" x1="8.5" y1="-2.5" x2="21.5" y2="28.5" gradientUnits="userSpaceOnUse">
<stop stop-color="#342DB0"/>
<stop offset="0.390625" stop-color="#4F89FA"/>
<stop offset="0.729167" stop-color="#6E74D9"/>
<stop offset="1" stop-color="#672D95"/>
</linearGradient>
</defs>
</svg>
